<?xml version="1.0" encoding="UTF-8"?>
<!DOCTYPE svg PUBLIC "-//W3C//DTD SVG 1.1//EN" "http://www.w3.org/Graphics/SVG/1.1/DTD/svg11.dtd">
<!-- Creator: CorelDRAW 2020 (64-Bit) -->
<svg xmlns="http://www.w3.org/2000/svg" xml:space="preserve" width="573px" height="146px" version="1.1" style="shape-rendering:geometricPrecision; text-rendering:geometricPrecision; image-rendering:optimizeQuality; fill-rule:evenodd; clip-rule:evenodd"
viewBox="0 0 82.42 20.98"
 xmlns:xlink="http://www.w3.org/1999/xlink"
 xmlns:xodm="http://www.corel.com/coreldraw/odm/2003">
 <defs>
  <style type="text/css">
   <![CDATA[
    .fil1 {fill:#009F52}
    .fil2 {fill:#2B2A29;fill-rule:nonzero}
    .fil0 {fill:#E31E24;fill-rule:nonzero}
   ]]>
  </style>
 </defs>
 <g id="Layer_x0020_1">
  <metadata id="CorelCorpID_0Corel-Layer"/>
  <g id="_2818654824656">
   <path class="fil0" d="M72.48 14.3c0.14,0.4 0.33,0.69 0.58,0.86 0.25,0.19 0.58,0.28 1.01,0.28 0.46,0 0.81,-0.11 1.07,-0.31 0.19,-0.15 0.29,-0.35 0.29,-0.58 0,-0.25 -0.13,-0.45 -0.39,-0.59 -0.18,-0.1 -0.67,-0.23 -1.47,-0.37 -1.19,-0.22 -2.02,-0.42 -2.48,-0.61 -0.46,-0.19 -0.85,-0.5 -1.17,-0.94 -0.32,-0.44 -0.48,-0.94 -0.48,-1.5 0,-0.62 0.18,-1.15 0.52,-1.6 0.34,-0.45 0.81,-0.78 1.41,-1 0.6,-0.22 1.41,-0.33 2.42,-0.33 1.06,0 1.85,0.09 2.36,0.25 1.02,0.35 2.12,1.43 2.12,2.58l-3.25 0.01c-0.09,-0.3 -0.23,-0.52 -0.42,-0.66 -0.27,-0.19 -0.6,-0.29 -0.98,-0.29 -0.39,0 -0.67,0.08 -0.85,0.22 -0.17,0.14 -0.26,0.32 -0.26,0.52 0,0.24 0.11,0.41 0.34,0.52 0.22,0.12 0.71,0.23 1.46,0.32 1.14,0.14 1.99,0.32 2.54,0.57 0.56,0.24 0.98,0.58 1.28,1.03 0.29,0.44 0.44,0.93 0.44,1.47 0,0.54 -0.16,1.07 -0.47,1.58 -0.31,0.51 -0.8,0.91 -1.47,1.22 -0.67,0.3 -1.59,0.45 -2.74,0.45 -2.49,0 -4.18,-0.33 -4.81,-3.1l3.4 0z"/>
   <path class="fil0" d="M55.04 7.82l1.9 0c1.13,0.13 1.84,0.67 2.14,1.62l1.38 4.61 1.24 -4.51c0.36,-1.14 1.05,-1.66 1.98,-1.72l1.91 0 -3.55 10c-0.4,1.14 -0.81,1.91 -1.23,2.31 -0.6,0.57 -1.5,0.85 -2.72,0.85 -0.5,0 -1.53,-0.07 -2.56,-0.21l0 -2.51c0.49,0.17 1.04,0.25 1.65,0.25 0.4,0 0.73,-0.1 0.98,-0.29 0.25,-0.19 0.46,-0.54 0.63,-1.04l-3.75 -9.36z"/>
   <path class="fil0" d="M44.53 4.26l1.88 0c1.08,-0.01 1.56,0.43 1.55,1.49l0 3.27c0.47,-0.51 0.93,-0.87 1.39,-1.08 0.46,-0.22 1,-0.33 1.63,-0.33 0.93,0 1.67,0.3 2.2,0.89 0.54,0.59 0.81,1.5 0.81,2.73l0 5.95 -3.45 0 0 -5.15c0,-0.58 -0.1,-1 -0.31,-1.24 -0.21,-0.25 -0.5,-0.37 -0.87,-0.37 -0.42,0 -0.76,0.17 -1.01,0.49 -0.26,0.33 -0.39,0.92 -0.39,1.78l0 4.49 -3.43 0 0 -12.92z"/>
   <path class="fil0" d="M40 13.52l3.08 0c0,1.68 -0.84,2.8 -2.28,3.45 -0.64,0.29 -1.45,0.43 -2.43,0.43 -0.95,0 -1.74,-0.09 -2.37,-0.28 -0.63,-0.18 -1.17,-0.48 -1.63,-0.9 -0.45,-0.41 -0.81,-0.9 -1.07,-1.46 -0.25,-0.55 -0.38,-1.29 -0.38,-2.22 0,-0.96 0.15,-1.76 0.47,-2.4 0.23,-0.47 0.54,-0.89 0.94,-1.27 0.4,-0.37 0.81,-0.65 1.23,-0.83 0.67,-0.29 1.52,-0.43 2.57,-0.43 1.46,0 2.57,0.27 3.34,0.82 1.07,0.7 1.59,1.98 1.61,2.84l-3.23 0.01c-0.1,-0.4 -0.28,-0.71 -0.55,-0.91 -0.27,-0.2 -0.62,-0.3 -1.07,-0.3 -0.57,0 -1.03,0.21 -1.38,0.64 -0.35,0.42 -0.52,1.07 -0.52,1.93 0,0.77 0.17,1.35 0.52,1.75 0.35,0.4 0.79,0.6 1.33,0.6 0.45,0 0.82,-0.12 1.13,-0.36 0.31,-0.24 0.54,-0.61 0.69,-1.11z"/>
   <path class="fil0" d="M21.83 7.82l1.61 0c0.84,-0.03 1.41,0.39 1.58,1.52 0.48,-0.62 0.96,-1.06 1.45,-1.33 0.49,-0.27 1.08,-0.4 1.78,-0.4 0.95,0 1.69,0.3 2.23,0.89 0.53,0.59 0.8,1.5 0.8,2.73l0 5.95 -3.44 0 0 -5.15c0,-0.58 -0.1,-1 -0.31,-1.24 -0.21,-0.25 -0.5,-0.37 -0.88,-0.37 -0.41,0 -0.75,0.17 -1.01,0.49 -0.25,0.33 -0.38,0.92 -0.38,1.78l0 4.49 -3.43 0 0 -9.36z"/>
   <path class="fil0" d="M19.64 9.25l0 7.93 -3.43 0 0 -9.3 1.79 0c1,-0.06 1.59,0.35 1.64,1.37z"/>
   <path class="fil0" d="M0 4.26l3.12 0c1.26,0.01 2.04,0.56 2.29,1.73l1.51 6.13 1.5 -6.1c0.42,-0.97 1.34,-1.7 2.53,-1.76l2.93 0 0 12.92 -3.11 0 0 -9.85 -2.42 9.85 -2.82 0 -2.41 -9.85 0 9.85 -3.12 0 0 -12.92z"/>
   <path class="fil1" d="M67.31 8.97c-2.07,-2.59 -3.22,-5.22 -2.01,-8.97 2.33,1.41 4.04,3.45 3.72,7.04 -0.14,1.55 -0.51,2.73 -1.43,3.96 -0.42,0.56 -0.89,1.02 -1.43,1.41 2.37,-3.21 2.12,-6.35 0.56,-9.46 0.7,2.24 0.94,4.25 0.59,6.02z"/>
   <path class="fil0" d="M16.21 4.26l1.88 0c1.08,-0.01 1.56,0.43 1.55,1.49l0 1.42 -3.43 0 0 -2.91z"/>
  </g>
  <path class="fil2" d="M79 10.57m1.71 -3.41c0.32,0 0.61,0.08 0.87,0.23 0.26,0.15 0.46,0.35 0.62,0.61 0.15,0.26 0.22,0.55 0.22,0.86 0,0.32 -0.08,0.61 -0.23,0.87 -0.15,0.27 -0.36,0.47 -0.62,0.62 -0.26,0.15 -0.55,0.23 -0.87,0.23 -0.31,0 -0.6,-0.08 -0.86,-0.23 -0.26,-0.15 -0.46,-0.35 -0.61,-0.62 -0.15,-0.26 -0.23,-0.54 -0.23,-0.86 0,-0.31 0.08,-0.6 0.23,-0.86 0.15,-0.26 0.35,-0.47 0.61,-0.62 0.26,-0.15 0.55,-0.23 0.87,-0.23zm-0.01 3.11c0.26,0 0.5,-0.07 0.71,-0.19 0.21,-0.12 0.38,-0.29 0.5,-0.51 0.12,-0.21 0.18,-0.45 0.18,-0.71 0,-0.26 -0.06,-0.5 -0.18,-0.7 -0.12,-0.21 -0.28,-0.38 -0.49,-0.5 -0.21,-0.12 -0.45,-0.18 -0.71,-0.18 -0.26,0 -0.5,0.06 -0.7,0.18 -0.21,0.12 -0.38,0.29 -0.5,0.51 -0.12,0.21 -0.18,0.45 -0.18,0.7 0,0.26 0.06,0.5 0.18,0.71 0.12,0.21 0.29,0.38 0.5,0.5 0.2,0.12 0.44,0.19 0.69,0.19zm0.9 -1.67c0,0.14 -0.02,0.25 -0.08,0.35 -0.07,0.1 -0.15,0.18 -0.27,0.23l0.41 0.63 -0.5 0 -0.36 -0.54 -0.01 0 -0.32 0 0 0.54 -0.5 0 0 -1.88 0.82 0c0.25,0 0.45,0.06 0.6,0.18 0.14,0.12 0.21,0.29 0.21,0.49zm-0.85 0.29c0.11,0 0.2,-0.02 0.27,-0.08 0.06,-0.04 0.09,-0.12 0.09,-0.21 0,-0.09 -0.03,-0.16 -0.09,-0.22 -0.07,-0.05 -0.16,-0.07 -0.27,-0.07l-0.28 0 0 0.58 0.28 0z"/>
 </g>
</svg>
